<svg xmlns="http://www.w3.org/2000/svg" viewBox="385 820 2230 360" role="img" aria-label="ALYRA" fill="currentColor">
  <path d="M389.46,1175.33c52.17-117.33,106.52-233.7,158.67-351.03c14.44,0.78,28.93-0.54,43.37,0.72c11.39,26.52,24.39,52.33,36.66,78.46c11.47,26.38,24.93,51.85,36.94,77.98c29.85,64.86,61.49,128.88,90.92,193.89c-15.49,0.1-30.98,0.06-46.46,0.2c-3.86-3.48-4.6-9.26-7.09-13.7c-24.99-54.04-49.9-108.11-75.19-161.99c-18.56-41.52-39.15-82.1-57.29-123.8c-43.53,96.62-86.44,193.5-129.77,290.21c-1.21,2.53-1.99,5.24-2.47,8.04c-4.54,1.73-9.44,1-14.16,1.1C412.22,1175.32,400.83,1175.55,389.46,1175.33z"></path>
  <path d="M912.66,824.21c13.88,0.62,27.8,0.24,41.7,0.12c0.9,107.57,0.02,215.18,0.46,322.75c76.55,0.36,153.09,0.26,229.64,0.04c-0.06,9.54-0.06,19.08,0.08,28.64c-90.64-0.6-181.33-0.3-271.99-0.16C913.06,1058.46,912.72,941.34,912.66,824.21z"></path>
  <path d="M1252.64,824.37c17.3,0.1,34.61,0.16,51.93-0.02c23.42,29.95,48.63,58.45,72.78,87.78c24.02,29.81,49.01,58.84,72.9,88.75c0.58-0.04,1.75-0.1,2.33-0.12c12.76-17.11,27.08-32.96,40.42-49.6c33.95-41.98,69.6-82.62,102.31-125.55c17.09-2.57,34.59-0.2,51.83-1.29c-1.47,6.27-7.11,10.39-10.59,15.57c-44.88,53.43-88.18,108.19-133,161.67c-10.69,12.41-20.61,25.51-31.9,37.38c-0.56,45.6,0.46,91.2-0.44,136.8c-13.84-0.46-27.7-0.62-41.54,0.06c-0.28-45.62,0.18-91.24-0.28-136.86c-50.42-58.56-99.07-118.62-148.05-178.38C1271.72,848.56,1260.91,837.37,1252.64,824.37z"></path>
  <path d="M1803.96,824.45c60.79,0.16,121.61-0.02,182.42,0.14c30.11,0.54,61.21,7.79,85.21,26.82c13.32,11.83,24.97,26.29,30.15,43.61c7.59,24.55,7.79,51.58-0.5,75.99c-6.29,21.53-21.43,40.01-40.58,51.46c-16.63,9.66-35.45,15.93-54.66,17.26c3.76,2.95,7.39,6.11,10.75,9.54c40.56,39.87,80.23,80.59,121.09,120.14c1.91,1.63,3.19,3.8,4.3,6.05c-20.01,0.02-40.03-0.22-60.04,0.12c-43.39-44.88-87.88-88.73-131.75-133.12c-17.76-1.41-35.7-0.26-53.55-0.64c-17.09,0.14-34.19-0.34-51.26,0.3c0.4,44.47-0.16,88.93,0.38,133.38c-14.08-0.06-28.18-0.24-42.26-0.04c0.34-54.28-0.1-108.55,0.28-162.83c50.86-0.14,101.72-0.02,152.57-0.16c24.59-0.26,50.72-1,72.56-13.78c15.15-8.56,24.77-24.41,29.49-40.78c4.64-19.46,3.84-40.26-2.81-59.14c-7.07-19.83-24.61-35.43-45-40.42c-22.54-7.61-46.62-6.27-70.03-6.63c-45.68-0.22-91.36-0.26-137.04-0.26C1804.02,842.45,1803.96,833.45,1803.96,824.45z"></path>
  <path d="M2405.54,825.9c13.44-3.25,27.7-0.54,41.48-1.33c43.77,94.41,88.24,188.56,132.26,282.87c10.16,22.76,21.84,44.86,31.26,67.92c-13.22,0.14-26.44-0.12-39.65,0.12c-2.67-0.3-6.43,1.14-7.91-1.89c-32.36-70.01-64.42-140.17-96.76-210.18c-12.39-28.56-26.66-56.25-38.43-85.07c-1.25,0.56-2.13,1.43-2.65,2.63c-44.25,98.53-89.87,196.38-134.71,294.63c-15.85-0.86-31.8,0.92-47.57-1.02c28.85-58.86,55.6-118.72,83.89-177.84c16.33-35.41,32.8-70.77,49.52-106.02C2385.63,868.93,2397.14,848.04,2405.54,825.9z"></path>
</svg>