<?xml version="1.0" encoding="utf-8"?>
<!-- SkyScale logo (Corptic) — viewBox cropped to artwork bounding box -->
<svg version="1.1" xmlns="http://www.w3.org/2000/svg" xmlns:xlink="http://www.w3.org/1999/xlink"
	 viewBox="443.89 817.62 2112.27 364.78" xml:space="preserve">
<style type="text/css">
	.st0{fill:#FFFFFF;}
</style>
<g>
	<g>
		<path class="st0" d="M1166.87,984.92c14.83,0,27.52,5.28,38.09,15.85c10.56,10.57,15.85,23.26,15.85,38.09
			c0,14.83-5.28,27.52-15.85,38.09c-10.57,10.57-23.26,15.85-38.09,15.85h-111.45v-36.55h112.47c4.77,0,8.82-1.66,12.14-4.98
			c3.32-3.32,4.98-7.37,4.98-12.14c0-4.77-1.66-8.86-4.98-12.27c-3.32-3.41-7.37-5.11-12.14-5.11h-7.92h-50.61
			c-14.83,0-27.52-5.24-38.09-15.72c-10.57-10.48-15.85-23.17-15.85-38.09c0-14.91,5.28-27.65,15.85-38.21
			c10.56-10.56,23.26-15.85,38.09-15.85h91v36.55h-92.02c-4.77,0-8.82,1.71-12.14,5.11c-3.32,3.41-4.98,7.5-4.98,12.27
			c0,4.77,1.66,8.82,4.98,12.14c3.32,3.32,7.37,4.98,12.14,4.98h51.64H1166.87z"/>
		<path class="st0" d="M1355.26,987.22c7.84,2.56,14.7,6.65,20.58,12.27c5.88,5.62,10.18,12.27,12.91,19.94l26.33,73.36h-36.81
			l-19.68-55.47c-1.19-3.07-2.9-5.79-5.11-8.18c-2.22-2.38-4.86-4.22-7.92-5.5c-3.07-1.28-6.22-1.92-9.46-1.92h-47.55v71.06h-36.81
			V913.86h36.81v71.06h20.19l58.54-71.06h49.85L1355.26,987.22z"/>
		<path class="st0" d="M1563.08,913.86h36.81v54.96c0,14.49-5.16,26.88-15.46,37.19c-10.31,10.31-22.79,15.46-37.45,15.46h-59.82
			c-9.55,0-18.36-2.34-26.46-7.03c-8.1-4.69-14.49-11.08-19.17-19.17c-4.69-8.09-7.03-16.91-7.03-26.46v-54.96h36.81v50.61
			c0,5.62,1.96,10.44,5.88,14.44c3.92,4.01,8.69,6.01,14.31,6.01h51.38c5.62,0,10.39-2,14.31-6.01c3.92-4,5.88-8.82,5.88-14.44
			V913.86z M1535.48,1021.73v44.99v26.07h-36.55v-26.07v-6.39c0-8.86,3.58-15.85,10.74-20.96L1535.48,1021.73z"/>
		<path class="st0" d="M1736.65,984.92c14.83,0,27.52,5.28,38.09,15.85c10.56,10.57,15.85,23.26,15.85,38.09
			c0,14.83-5.28,27.52-15.85,38.09c-10.57,10.57-23.26,15.85-38.09,15.85H1625.2v-36.55h112.47c4.77,0,8.82-1.66,12.14-4.98
			c3.32-3.32,4.98-7.37,4.98-12.14c0-4.77-1.66-8.86-4.98-12.27c-3.32-3.41-7.37-5.11-12.14-5.11h-7.92h-50.61
			c-14.83,0-27.52-5.24-38.09-15.72c-10.57-10.48-15.85-23.17-15.85-38.09c0-14.91,5.28-27.65,15.85-38.21
			c10.56-10.56,23.26-15.85,38.09-15.85h91v36.55h-92.02c-4.77,0-8.82,1.71-12.14,5.11c-3.32,3.41-4.98,7.5-4.98,12.27
			c0,4.77,1.66,8.82,4.98,12.14s7.37,4.98,12.14,4.98h51.64H1736.65z"/>
		<path class="st0" d="M1875.19,950.67c-5.62,0-10.4,1.96-14.32,5.88c-3.92,3.92-5.88,8.69-5.88,14.31v64.93
			c0,5.62,1.96,10.4,5.88,14.32c3.92,3.92,8.69,5.88,14.32,5.88h108.38v36.81h-112.73c-14.49,0-26.88-5.15-37.19-15.46
			c-10.31-10.31-15.46-22.71-15.46-37.19v-73.36c0-14.65,5.15-27.14,15.46-37.45c10.31-10.31,22.71-15.46,37.19-15.46h112.73v36.81
			H1875.19z"/>
		<path class="st0" d="M2101.16,913.86h62.37v36.81h-58.79c-3.24,0-6.39,0.64-9.46,1.92s-5.71,3.11-7.92,5.5
			c-2.22,2.39-3.92,5.2-5.11,8.43l-45.25,126.28h-36.81l51.89-144.17c3.58-10.39,9.88-18.79,18.92-25.18
			C2080.02,917.05,2090.08,913.86,2101.16,913.86z M2126.72,987.99c0-7.84,3.23-14.06,9.71-18.66l27.1-18.66v142.12h-36.81V987.99z"
			/>
		<path class="st0" d="M2259.64,1055.98h108.38v36.81h-112.73c-14.49,0-26.88-5.15-37.19-15.46
			c-10.31-10.31-15.46-22.71-15.46-37.19V913.86h36.81v86.91v35.02c0,5.62,1.96,10.4,5.88,14.32
			C2249.24,1054.02,2254.01,1055.98,2259.64,1055.98z"/>
		<path class="st0" d="M2556.16,913.86v36.81h-108.38c-5.62,0-10.4,1.96-14.32,5.88c-3.92,3.92-5.88,8.69-5.88,14.31v64.93
			c0,5.62,1.96,10.4,5.88,14.32c3.92,3.92,8.69,5.88,14.32,5.88h108.38v36.81h-112.73c-14.49,0-26.88-5.15-37.19-15.46
			c-10.31-10.31-15.46-22.71-15.46-37.19v-73.36c0-14.65,5.15-27.14,15.46-37.45c10.31-10.31,22.71-15.46,37.19-15.46H2556.16z
			 M2445.22,995.91c5.11-7.33,12.1-10.99,20.96-10.99h66.21v36.81h-104.8v-0.26L2445.22,995.91z"/>
	</g>
	<g>
		<path class="st0" d="M945.42,1016.73l-0.01-0.02l-0.02-0.05v0c-8.16-18-20.41-34.32-36.26-45.82c0,0,0,0,0,0
			c-0.22-0.07-0.42-0.19-0.59-0.35l-0.25-0.25c-7.02-5.08-14.53-9.53-22.39-12.99c-7.89-3.47-16.13-5.97-24.6-7.12l-2.31-0.31
			c-0.59-0.08-1.07-0.52-1.19-1.11l-0.48-2.28c-0.81-3.86-1.36-7.65-1.96-11.29c-0.59-3.63-1.24-7.1-2.19-10.39l-0.01-0.05
			l-0.01-0.05v0c0,0,0-0.01,0-0.01v0c0-0.01,0-0.02-0.01-0.03c-8.19-29.99-26.61-57.05-51.24-76.04c-0.11-0.06-0.23-0.15-0.32-0.24
			l-0.04-0.04c-21.59-16.82-48.34-26.79-75.63-29.91c-4.81-0.51-9.67-0.76-14.51-0.76h-0.03c-24.67,0-49.36,6.55-70.84,18.71
			l-0.02,0.01c-26.85,16.07-48.99,40.59-60.58,69.61c0,0.01,0,0.02-0.01,0.03l0,0.01l-0.01,0.03l-0.02,0.06l-0.06,0.14v0
			c-2.05,4.89-3.9,9.85-5.44,14.86v0c-1.56,5.03-2.8,10.13-3.64,15.28l-0.45,2.82c-0.11,0.69-0.71,1.2-1.42,1.19l-2.86-0.05
			c-0.66-0.01-1.29-0.01-1.95-0.01c-26.68,0-53.46,8.25-74.54,24.48c-0.01,0.01-0.02,0.02-0.03,0.03l-0.01,0.01l-0.07,0.05
			l-0.07,0.05c-15.78,12.06-28.27,28.53-35.92,46.91c-0.01,0.02-0.02,0.05-0.03,0.08l-0.01,0.02l-0.01,0.04
			c-0.01,0.04-0.03,0.07-0.05,0.11c0,0,0,0,0,0c0,0.02-0.01,0.03-0.02,0.05c0,0.01-0.01,0.01-0.01,0.02
			c-6.48,14.68-9.41,30.78-9.41,46.98c0,7.53,0.64,15.07,1.83,22.49l0.05,0.29c4.71,28.25,20.46,54.43,42.46,72.81l0.02,0.01
			l0.03,0.03l0.05,0.04l0.03,0.02c16.04,13.6,36.15,22.22,57.02,25.64h0.01c0.03,0,0.06,0.01,0.1,0.01l0.12,0.02h0.01
			c7.33,1.26,14.77,1.9,22.22,1.9c7.59,0,15.16-0.66,22.6-2.01c3.71-0.67,7.4-1.52,11.04-2.55c3.63-1.02,7.22-2.21,10.73-3.58
			c18.49-7.23,35.07-19.23,48.13-34.27c13.04-15.01,22.54-33.06,27-52.37v-0.01c0,0,0-0.01,0-0.02c0-0.02,0.01-0.04,0.01-0.07
			c2.73-11.98,3.12-24.47,3.12-37.22c0-4.52-0.05-9.06-0.05-13.63c0-0.83,0-1.66,0-2.5v-0.11c0-0.09,0-0.22,0-0.38v-0.06
			c0-0.62-0.03-1.28-0.08-1.99c-15.37,0.03-30.71,0.02-46.05,0.14l-6.64,0.05c-0.53,0-1.03-0.3-1.27-0.77
			c-0.25-0.48-0.19-1.06,0.13-1.49l3.97-5.32c21.07-28.33,42.47-56.42,64.28-84.18l2.64-3.37c0.27-0.35,0.68-0.55,1.13-0.54
			c0.44,0,0.85,0.21,1.11,0.56l2.59,3.4c21.58,28.4,43.74,56.41,65.6,84.72l4.04,5.23c0.33,0.43,0.39,1,0.16,1.48
			c-0.24,0.49-0.72,0.79-1.26,0.8l-6.6,0.1c-5.43,0.08-10.84,0.1-16.24,0.1c-4.68,0-9.36-0.01-14.02-0.01
			c-5.28,0-10.55,0.01-15.8,0.1c0.09,27.09,0.08,54.17,0.13,81.25v0.06c0.34,13,0.38,25.98,0.38,38.92c0,4.59,0,9.18,0,13.77
			c0,4.91,0.01,9.81,0.04,14.72c26.06-0.01,52.13-0.07,78.2-0.07c2.29,0,4.59,0,6.88,0h0.01c0.67,0,1.34,0,2,0
			c4.18,0,8.34,0.05,12.45,0.05c7.8,0,15.47-0.18,22.95-1.15v0l0.12-0.02h0.02l1.1-0.15c28.49-4.02,55.57-18.53,74.31-40.34
			c0.01-0.01,0.02-0.03,0.04-0.04c0,0,0,0,0,0c18.24-21.13,27.98-49.25,27.98-77.26v-0.06
			C954.64,1046.62,951.61,1031.04,945.42,1016.73z M932.04,1083.73c-2.49,12.62-7.78,24.46-15.1,34.85
			c-7.34,10.41-16.71,19.4-27.41,26.3l-0.01,0.01h0c-0.01,0.01-0.03,0.02-0.04,0.03c-16.27,10.97-35.8,16.06-55.06,16.08
			c-27.25,0.14-54.47,0.01-81.67,0.16l-3.33,0.01c-0.38,0-0.74-0.15-1.01-0.42c-0.26-0.26-0.42-0.63-0.42-1.01l0.01-3.33
			c0.02-5.48,0.03-10.94,0.03-16.42c0-15.06-0.05-30.13-0.05-45.22c0-12.34,0.03-24.69,0.17-37.04l0.03-3.28
			c0.01-0.78,0.65-1.41,1.43-1.4l3.29,0.01c15.96,0.08,31.92,0.11,47.89,0.11c10.99,0,21.98-0.01,32.97-0.03
			c-10.85-13.75-21.39-27.68-32.1-41.41l-0.03-0.04l-0.08-0.11c-15.86-20.48-31.98-40.8-47.85-61.37c-0.01-0.01-0.02-0.03-0.03-0.04
			c-15.17-19.61-30.33-39.17-45.94-58.35c-21.49,28.35-42.89,56.83-64.86,84.92c-0.01,0.01-0.02,0.03-0.03,0.04
			s-0.01,0.02-0.02,0.03l0,0c-16.4,21.62-32.65,43.36-48.84,65.17l-0.01,0.02l-0.03,0.05l-0.02,0.03l-0.06,0.08c0,0,0,0-0.01,0.01
			c0,0,0,0.01-0.01,0.01c-1.6,2.07-3.15,4.15-4.67,6.25c1.01,0,2.01,0,3.02,0c17.82,0,35.65-0.09,53.5-0.09
			c6.25,0,12.5,0.01,18.75,0.04l3.15,0.01c0.76,0,1.37,0.6,1.41,1.35l0.13,3.15v0c0.08,2.09,0.13,4.19,0.13,6.31
			c0,11.64-1.43,23.47-5.49,34.78c-7.4,20.91-21.84,38.91-39.88,51.44c0,0.01-0.01,0.01-0.02,0.02c-0.01,0-0.01,0.01-0.02,0.01
			c-0.01,0.01-0.02,0.02-0.03,0.02l-0.07,0.05v0l-0.02,0.01l0,0c-0.01,0.01-0.02,0.01-0.03,0.02s-0.03,0.02-0.04,0.02
			c-16.52,11.34-36.34,16.46-55.98,16.46c-2.69,0-5.38-0.09-8.06-0.29c-0.29,0.2-0.65,0.29-1.01,0.24l-8.85-1.35
			c-16.76-2.58-32.49-9.7-45.92-19.67c-0.01,0-0.03-0.02-0.04-0.03c0,0-0.01,0-0.01-0.01c-0.01,0-0.02-0.01-0.03-0.02c0,0,0,0,0,0
			c-0.04-0.02-0.09-0.06-0.13-0.09c0,0-0.01,0-0.01-0.01c-0.01,0-0.02-0.01-0.03-0.02c-10.52-8.02-19.22-18.16-25.78-29.53
			c-6.59-11.4-11.04-24.04-13.03-37.06c0-0.01,0-0.02,0-0.04c0-0.02,0-0.04-0.01-0.07v0l0-0.03c-0.68-4.66-1.01-9.36-1.01-14.05
			c0-15.76,3.71-31.48,10.64-45.6c0.01-0.01,0.01-0.03,0.02-0.05l0-0.01l0.03-0.06l0,0c0-0.01,0.01-0.02,0.01-0.03l0.01-0.03
			c0.01-0.03,0.03-0.07,0.04-0.09c7.85-14.74,19.37-27.46,33.24-36.75c15.87-10.73,34.94-16.56,54.07-16.57
			c8.87,0,17.75,1.26,26.31,3.89c0.06-8.23,0.63-16.51,2.04-24.75l0.01-0.07l0.01-0.03l0-0.03c2.41-11.97,6.37-23.71,11.89-34.68
			c5.53-10.97,12.64-21.15,21.36-29.98l0.01-0.01c11.56-11.56,25.19-21.65,40.82-27.78l0.3-0.12l0.01,0l0.56-0.22
			c14.65-5.88,30.37-8.76,46.08-8.76c9.99,0,19.98,1.17,29.7,3.46h0l1.2,0.29l0.37,0.09c1.18,0.28,11.23,3.33,11.23,3.33
			c21.36,7.46,40.55,20.76,55.21,37.93c0.02,0.02,0.04,0.04,0.06,0.06c0,0,0,0,0,0.01c0,0,0.01,0.01,0.02,0.02l0,0.01
			c0.01,0,0.02,0.02,0.04,0.04c14.93,18,25.81,39.91,28.92,63.53v0c0,0.01,0,0.03,0.01,0.05l0,0.05l0,0.02
			c0.76,5.44,0.97,10.82,0.97,16.11c0,1.82-0.02,3.63-0.06,5.42c0.74-0.02,1.48-0.03,2.22-0.03c20.17,0,40.15,6.72,56.23,18.92
			c11.64,8.76,20.93,20.32,27.34,33.3c6.41,12.98,9.92,27.39,9.93,41.89C934.59,1069.82,933.76,1076.85,932.04,1083.73z"/>
		<polygon class="st0" points="504.54,1139.8 504.3,1140.13 504.02,1140.62 504.6,1139.84 504.56,1139.82 		"/>
		<polygon class="st0" points="641.71,975.92 641.93,976.08 641.74,975.89 		"/>
		<polygon class="st0" points="888.74,1143.7 888.73,1143.7 889.34,1144.6 888.75,1143.7 		"/>
		<polygon class="st0" points="807.9,884.4 807.91,884.42 808.3,884.03 807.88,884.39 		"/>
	</g>
</g>
</svg>
